<svg width="800" height="640" viewBox="0 0 800 640" fill="none" xmlns="http://www.w3.org/2000/svg">
  <defs>
    <linearGradient id="bgGradient" x1="0" y1="0" x2="1" y2="1">
      <stop offset="0%" stop-color="#7000FF" stop-opacity="0.25" />
      <stop offset="100%" stop-color="#FF2D92" stop-opacity="0.18" />
    </linearGradient>
    <linearGradient id="photoOverlay" x1="0" y1="0" x2="1" y2="1">
      <stop offset="0%" stop-color="#7000FF" stop-opacity="0.55" />
      <stop offset="100%" stop-color="#FF2D92" stop-opacity="0.55" />
    </linearGradient>
  </defs>
  <rect x="0" y="0" width="800" height="640" rx="60" fill="#FFFFFF" />
  <path d="M566 0H800V640H284C229.58 640 184 594.42 184 540V100C184 45.58 229.58 0 284 0H566Z" fill="url(#bgGradient)" />
  <rect x="300" y="80" width="360" height="500" rx="60" fill="#FFFFFF" />
  <rect x="320" y="100" width="320" height="260" rx="40" fill="url(#photoOverlay)" />
  <rect x="360" y="240" width="240" height="40" rx="20" fill="rgba(255,255,255,0.6)" />
  <rect x="360" y="300" width="180" height="32" rx="16" fill="rgba(255,255,255,0.55)" />
  <circle cx="520" cy="220" r="54" fill="#FFFFFF" opacity="0.16" />
  <circle cx="590" cy="160" r="30" fill="#FF2D92" opacity="0.2" />
  <circle cx="665" cy="92" r="22" fill="#7000FF" opacity="0.18" />
  <rect x="320" y="380" width="320" height="170" rx="40" fill="#F4EDFF" />
  <rect x="340" y="400" width="280" height="18" rx="9" fill="#E9E0FF" />
  <rect x="340" y="440" width="240" height="18" rx="9" fill="#E9E0FF" />
  <rect x="340" y="480" width="180" height="18" rx="9" fill="#E9E0FF" />
  <rect x="320" y="560" width="120" height="22" rx="11" fill="#FF2D92" opacity="0.14" />
  <path d="M108 520C108 517.238 109.101 514.557 111.172 512.757L160.307 465.539C162.83 463.013 166.289 462 169.855 462H310C341.614 462 368 488.386 368 520V558H120C113.373 558 108 552.627 108 546V520Z" fill="#F6F2FF" />
  <circle cx="124" cy="396" r="24" fill="#FFFFFF" />
  <circle cx="172" cy="456" r="30" fill="rgba(112,0,255,0.2)" />
</svg>